#File written by RizomUV 2022.0.11.g5424fda. Compilation :Nov 24 2021,04:16:21
mtllib 1:mtl
#begin vertices
v -13.3881 0 -0.1753
v -13.3881 0 -8.3652
v -4.5157 0 -8.3652
v -4.5157 0 -0.1753
v -13.3881 21.0359 -0.1753
v -4.5157 21.0359 -0.1753
v -4.5157 25.8887 -7.0859
v -5.122 26.2371 -7.5821
v -13.3881 26.2371 -7.5821
v -4.5157 0.6 -8.3652
v -13.3881 0.6 -8.3652
v -13.3881 0.6 -0.7753
v -4.5157 0.6 -0.7753
v -5.122 25.7461 -7.9269
v -4.5157 25.3977 -7.4307
v -4.5157 20.7241 -0.7753
v -13.3881 20.7241 -0.7753
v -13.3881 25.7461 -7.9269
v -4.5157 0.1 -0.2753
v -4.5157 0.1 -8.2652
v -4.5157 0.5 -8.2652
v -4.5157 0.5 -0.6753
v -4.5157 25.7494 -7.0615
v -4.5157 20.9839 -0.2753
v -4.5157 20.776 -0.6753
v -4.5157 25.422 -7.2914
v -4.5157 1.1494 -0.3543
v -4.5157 1.1494 -0.6635
v -3.887 2.2264 -0.6635
v -3.887 2.2264 -0.3543
v -4.5157 14.265 -0.3543
v -3.887 13.2606 -0.3543
v -3.887 13.2606 -0.6635
v -4.5157 14.265 -0.6635
v -13.9826 21.4763 -0.1064
v -5.9193 21.4763 -0.1064
v -5.9193 26.4449 -7.1819
v -6.741 26.9171 -7.8544
v -13.9826 26.9171 -7.8544
v -14.3871 4.9896 0.2247
v -13.3285 3.9309 0.2247
v -5.5147 3.9309 0.2247
v -5.5147 21.2438 0.2247
v -14.3871 21.2438 0.2247
v -6.5734 26.8222 -8.4153
v -5.5147 26.2138 -7.5489
v -5.5147 21.0359 -0.1753
v -14.3871 21.0359 -0.1753
v -14.3871 26.8222 -8.4153
v -5.5147 3.9309 -0.1753
v -13.3285 3.9309 -0.1753
v -14.3871 4.9896 -0.1753
v -5.5147 26.5412 -7.3191
v -14.3871 27.1496 -8.1855
v -6.5734 27.1496 -8.1855
#end vertices

#begin 81 textures vertices 
vt 0.3006876 0.7804876 0
vt 0.2305431 0.9838683 0
vt 0.01837956 0.8873782 0
vt 0.1027053 0.7453896 0
vt 0.3051407 0.2351245 0
vt 0.08194644 0.2773831 0
vt 0.01831764 0.09157992 0
vt 0.02748728 0.07282985 0
vt 0.2302264 0.01660813 0
vt 0.5428149 0.8749894 0
vt 0.3307981 0.8749894 0
vt 0.3307981 0.6936195 0
vt 0.5428149 0.6936195 0
vt 0.5283266 0.00390625 0
vt 0.5428149 0.01839448 0
vt 0.5428149 0.2127295 0
vt 0.3307981 0.2127295 0
vt 0.3307981 0.00390625 0
vt 0.1003078 0.7441395 0
vt 0.01703586 0.8849326 0
vt 0.007606065 0.8833623 0
vt 0.09074947 0.7395639 0
vt 0.01672167 0.09453569 0
vt 0.07949586 0.2775716 0
vt 0.06977699 0.281135 0
vt 0.007126491 0.09690069 0
vt 0.7996967 0.3256979 0
vt 0.7772845 0.3216338 0
vt 0.792308 0.2958975 0
vt 0.7996967 0.2958975 0
vt 0.8147203 0.008220476 0
vt 0.7996967 0.03222184 0
vt 0.792308 0.03222184 0
vt 0.792308 0.00390625 0
vt 0.8381847 0.9939355 0
vt 0.5546875 0.9939355 0
vt 0.5546875 0.6899586 0
vt 0.5835776 0.6610677 0
vt 0.8381847 0.6610677 0
vt 0.9608698 0.3952055 0
vt 0.9452766 0.410666 0
vt 0.8287751 0.4033831 0
vt 0.8327253 0.1558696 0
vt 0.9616558 0.153302 0
vt 0.5793402 0.6532552 0
vt 0.5540413 0.6279568 0
vt 0.5540413 0.4126511 0
vt 0.7660581 0.4126511 0
vt 0.7660581 0.6532552 0
vt 0.5540413 0.00390625 0
vt 0.7407616 0.00390625 0
vt 0.7660581 0.02920518 0
vt 0.8299071 0.024618 0
vt 0.9541259 0.01753625 0
vt 0.8446672 0.00945672 0
vt 0.08835975 0.7383722 0
vt 0.2365176 0.00390625 0
vt 0.00390625 0.8855309 0
vt 0.2367428 0.9960937 0
vt 0.3122431 0.7782009 0
vt 0.01872748 0.0617193 0
vt 0.00390625 0.09489957 0
vt 0.06735196 0.2820521 0
vt 0.3190726 0.236356 0
vt 0.8147203 0.3216338 0
vt 0.792308 0.3256979 0
vt 0.7996967 0.00390625 0
vt 0.7772845 0.008220476 0
vt 0.9483849 0.02294467 0
vt 0.9554604 0.1477398 0
vt 0.8385848 0.1498849 0
vt 0.8358874 0.02690891 0
vt 0.8468347 0.01558663 0
vt 0.9582335 0.01370637 0
vt 0.8433966 0.00390625 0
vt 0.8242187 0.02302373 0
vt 0.8269302 0.1563638 0
vt 0.9673261 0.1536996 0
vt 0.8242187 0.4067165 0
vt 0.9462738 0.4162651 0
vt 0.9665742 0.3967257 0
#end 81 textures vertices 

#begin 36 normals 
vn -0.5774 -0.5774 0.5774
vn -0.5774 -0.5774 -0.5774
vn 0.5774 -0.5774 -0.5774
vn 0.5774 -0.5774 0.5774
vn -0.6166 0.3631 0.6986
vn 0.6166 0.3631 0.6986
vn 0.7173 0.6865 0.1191
vn 0.2971 0.928 -0.2248
vn -0.5774 0.8043 -0.1407
vn 0.5774 0.5774 -0.5774
vn -0.5774 0.5774 -0.5774
vn -0.9045 0.3015 -0.3015
vn 0.9045 0.3015 -0.3015
vn 0.2971 -0.1036 -0.9492
vn 0.7173 -0.345 -0.6053
vn 0.827 -0.2593 -0.4989
vn -0.827 -0.2593 -0.4989
vn -0.5774 -0.1407 -0.8043
vn 1 0 -0
vn 0.8185 -0.4779 0.3189
vn 0.8185 -0.4779 -0.3189
vn 0.7313 -0.1978 -0.6528
vn 0.7313 -0.1978 0.6528
vn 0.7985 0.4998 0.3354
vn 0.7305 0.2098 0.6499
vn 0.7305 0.2098 -0.6499
vn 0.7985 0.4998 -0.3354
vn 0 0.8184 0.5747
vn -0 0.8184 0.5747
vn -0.7173 -0.2971 0.6303
vn -0.2971 -0.7173 0.6303
vn -0.5774 -0.1408 -0.8042
vn -0.2971 -0.7173 -0.6303
vn -0.7173 -0.2971 -0.6303
vn -0.5774 0.8043 -0.1406
vn 0.2971 0.928 -0.2247
#end 36 normals 

#begin 45 faces
o Obj3d66_7801326_1_542
usemtl wire_088144225
g Obj3d66_7801326_1_542
f 1/1/1 2/2/2 3/3/3 4/4/4 
f 5/5/5 6/6/6 7/7/7 8/8/8 9/9/9 
f 1/1/1 4/4/4 6/6/6 5/5/5 
f 10/10/10 11/11/11 12/12/12 13/13/13 
f 14/14/14 15/15/15 16/16/16 17/17/17 18/18/18 
f 16/16/16 13/13/13 12/12/12 17/17/17 
f 2/2/2 1/1/1 12/60/12 11/59/11 
f 3/3/3 2/2/2 11/59/11 10/58/10 
f 19/19/19 20/20/19 21/21/19 22/22/19 
f 23/23/19 24/24/19 25/25/19 26/26/19 
f 9/9/9 8/8/8 14/61/14 18/57/18 
f 5/5/5 9/9/9 18/57/18 17/64/17 
f 24/24/19 19/19/19 22/22/19 25/25/19 
f 1/1/1 5/5/5 17/64/17 12/60/12 
f 7/7/7 15/62/15 14/61/14 8/8/8 
f 4/4/4 3/3/3 20/20/19 19/19/19 
f 3/3/3 10/58/10 21/21/19 20/20/19 
f 10/58/10 13/56/13 22/22/19 21/21/19 
f 13/56/13 16/63/16 25/25/19 22/22/19 
f 16/63/16 15/62/15 26/26/19 25/25/19 
f 15/62/15 7/7/7 23/23/19 26/26/19 
f 7/7/7 6/6/6 24/24/19 23/23/19 
f 6/6/6 4/4/4 19/19/19 24/24/19 
f 27/27/20 28/66/21 29/29/22 30/30/23 
f 31/67/24 32/32/25 33/33/26 34/34/27 
f 27/65/20 30/30/23 32/32/25 31/31/24 
f 30/30/23 29/29/22 33/33/26 32/32/25 
f 29/29/22 28/28/21 34/68/27 33/33/26 
f 35/35/28 36/36/29 37/37/28 38/38/28 39/39/29 
f 40/40/30 41/41/31 42/42/4 43/43/6 44/44/5 
f 45/45/14 46/46/15 47/47/16 48/48/17 49/49/32 
f 47/47/16 50/50/3 51/51/33 52/52/34 48/48/17 
f 53/53/7 43/43/6 47/77/16 46/76/15 
f 54/54/35 55/55/36 45/75/14 49/74/32 
f 44/44/5 54/54/35 49/74/32 48/78/17 
f 42/42/4 41/41/31 51/80/33 50/79/3 
f 43/43/6 42/42/4 50/79/3 47/77/16 
f 40/40/30 44/44/5 48/78/17 52/81/34 
f 53/53/7 46/76/15 45/75/14 55/55/36 
f 51/80/33 41/41/31 40/40/30 52/81/34 
f 44/44/5 43/43/6 36/71/29 35/70/28 
f 43/43/6 53/53/7 37/72/28 36/71/29 
f 53/53/7 55/55/36 38/73/28 37/72/28 
f 55/55/36 54/54/35 39/69/29 38/73/28 
f 54/54/35 44/44/5 35/70/28 39/69/29 
#end 45 faces

#ZOMPROPERTIES_04{
#ZOMPROPERTIES_04 table {Mesh table {Islands table {0 table {TopoStable table {Color int -1 } PolyIDs ints { 0 15 8 17
#ZOMPROPERTIES_04  18 19 9 21 1 2 11 13 6 10 14 20 22 12 16 7 } } 1 table {TopoStable table {Color int -1 } PolyIDs in
#ZOMPROPERTIES_04 ts { 3 5 4 } } 2 table {TopoStable table {Color int -1 } PolyIDs ints { 23 26 24 27 25 } } 3 table {
#ZOMPROPERTIES_04 TopoStable table {Color int -1 } PolyIDs ints { 28 } } 4 table {TopoStable table {Color int -1 } Pol
#ZOMPROPERTIES_04 yIDs ints { 29 36 32 41 42 43 44 34 37 33 38 40 35 39 } } 5 table {TopoStable table {Color int -1 } 
#ZOMPROPERTIES_04 PolyIDs ints { 30 31 } } } SymPlane table {Point vector3d 0 0 0 Normal vector3d 1 0 0 Threshold doub
#ZOMPROPERTIES_04 le 0.01 Enabled bool false EdgeID int -1 SymEdgeID int -1 UPos double 0.5 LocalMode bool false } Roo
#ZOMPROPERTIES_04 tGroup CSubMeshGroup {Children table {Tile_0_0 CSubMeshGroup {Children table {} BBoxUV box3d 0 0 0 0
#ZOMPROPERTIES_04  0 0 BBox3D box3d 0 0 0 0 0 0 Area3D double 0 AreaUV double 0.693284 IsRoot bool false TopoStable ta
#ZOMPROPERTIES_04 ble {Selected bool false Box box3d 0 1 0 1 0 1 U int 0 V int 0 NU int 0 NV int 0 Tiling vector3d 1 1
#ZOMPROPERTIES_04  1 TileRatioMode string "1:1" Pack table {BoxFrameLocked bool false BoxFrameEdit bool false } } IsTi
#ZOMPROPERTIES_04 le bool true PolyIDs ints { 23 26 24 27 25 29 36 32 41 42 43 44 34 37 33 38 40 35 39 28 30 31 3 5 4 
#ZOMPROPERTIES_04 0 15 8 17 18 19 9 21 1 2 11 13 6 10 14 20 22 12 16 7 } } } BBoxUV box3d 0 0 0 0 0 0 BBox3D box3d 0 0
#ZOMPROPERTIES_04  0 0 0 0 Area3D double 0 AreaUV double 0 IsRoot bool true TopoStable table {Selected bool false Box 
#ZOMPROPERTIES_04 box3d 0 1 0 1 0 1 U int 0 V int 0 NU int 1 NV int 1 Tiling vector3d 1 1 1 TileRatioMode string "1:1"
#ZOMPROPERTIES_04  Pack table {BoxFrameLocked bool false BoxFrameEdit bool false Rotate table {Mode int 2 Min double 0
#ZOMPROPERTIES_04  Max double 90 Step double 0 } PaddingSize double 0.0078125 MarginSize double 0.00390625 Resolution 
#ZOMPROPERTIES_04 int 256 MapResolution int 2048 Scaling table {TexelDensity double 1024 Mode int 0 } LayoutScalingMod
#ZOMPROPERTIES_04 e int 2 MaxMutations int 1 } } IsTile bool false PolyIDs ints { } } Maps table {Density table {PrimT
#ZOMPROPERTIES_04 ype string "Polygon" Size int 1 DefaultValue double 1 ScaleType string "Log" MergeMode string "Avera
#ZOMPROPERTIES_04 ge" MinValue double 0.1 MaxValue double 4 Data doubles { r 45 1 } } Pin table {PrimType string "Vert
#ZOMPROPERTIES_04 ex" Size int 1 DefaultValue double 0 ScaleType string "Normalized" MergeMode string "×î´ó" MinValue 
#ZOMPROPERTIES_04 double 0 MaxValue double 1 Data doubles { r 81 0 } } Protect table {PrimType string "Vertex" Size in
#ZOMPROPERTIES_04 t 1 DefaultValue double 0 ScaleType string "Normalized" MergeMode string "Average" MinValue double -
#ZOMPROPERTIES_04 1 MaxValue double 1 Data doubles { r 81 0 } } } } }
#ZOMPROPERTIES_04}


#ZOMSCENE_01{
#ZOMSCENE_01 CScene {Settings table {AxisSystem table {UpVector string "y" } Unit string "cm" } }
#ZOMSCENE_01}

#begin 0 fatal error vertex (that RizomUV cannot handle)
#end 0 fatal error vertex (that RizomUV cannot handle)

#begin 0 error vertex
#end 0 error vertex
