# 3ds Max Wavefront OBJ Exporter v0.99 - (c)2007 guruware
# 创建的文件:02.10.2025 14:31:43

#
# object Cylinder001
#

v  60.7228 0.0000 -23.9097
v  57.3052 0.0000 -43.2921
v  57.3052 21.8066 -43.2921
v  60.7228 21.8066 -23.9097
v  47.4645 0.0000 -60.3367
v  47.4645 21.8066 -60.3367
v  32.3877 0.0000 -72.9877
v  32.3877 21.8066 -72.9877
v  13.8932 0.0000 -79.7191
v  13.8932 21.8066 -79.7191
v  -5.7882 0.0000 -79.7191
v  -5.7882 21.8066 -79.7191
v  -24.2827 0.0000 -72.9877
v  -24.2827 21.8066 -72.9877
v  -39.3595 0.0000 -60.3367
v  -39.3595 21.8066 -60.3367
v  -49.2002 0.0000 -43.2921
v  -49.2002 21.8066 -43.2921
v  -52.6178 0.0000 -23.9097
v  -52.6178 21.8066 -23.9097
v  -49.2002 0.0000 -4.5273
v  -49.2002 21.8066 -4.5273
v  -39.3595 0.0000 12.5173
v  -39.3595 21.8066 12.5173
v  -24.2827 0.0000 25.1682
v  -24.2827 21.8066 25.1682
v  -5.7882 0.0000 31.8997
v  -5.7882 21.8066 31.8997
v  13.8932 0.0000 31.8997
v  13.8932 21.8066 31.8997
v  32.3876 0.0000 25.1682
v  32.3876 21.8066 25.1682
v  47.4645 0.0000 12.5173
v  47.4645 21.8066 12.5173
v  57.3052 0.0000 -4.5273
v  57.3052 21.8066 -4.5273
v  57.3052 43.6132 -43.2921
v  60.7228 43.6132 -23.9097
v  47.4645 43.6132 -60.3367
v  32.3877 43.6132 -72.9877
v  13.8932 43.6132 -79.7191
v  -5.7882 43.6132 -79.7191
v  -24.2827 43.6132 -72.9877
v  -39.3595 43.6132 -60.3367
v  -49.2002 43.6132 -43.2921
v  -52.6178 43.6132 -23.9097
v  -49.2002 43.6132 -4.5273
v  -39.3595 43.6132 12.5173
v  -24.2827 43.6132 25.1682
v  -5.7882 43.6132 31.8997
v  13.8932 43.6132 31.8997
v  32.3876 43.6132 25.1682
v  47.4645 43.6132 12.5173
v  57.3052 43.6132 -4.5273
v  57.3052 65.4197 -43.2921
v  60.7228 65.4197 -23.9097
v  47.4645 65.4197 -60.3367
v  32.3877 65.4197 -72.9877
v  13.8932 65.4197 -79.7191
v  -5.7882 65.4197 -79.7191
v  -24.2827 65.4197 -72.9877
v  -39.3595 65.4197 -60.3367
v  -49.2002 65.4197 -43.2921
v  -52.6178 65.4197 -23.9097
v  -49.2002 65.4197 -4.5273
v  -39.3595 65.4197 12.5173
v  -24.2827 65.4197 25.1682
v  -5.7882 65.4197 31.8997
v  13.8932 65.4197 31.8997
v  32.3876 65.4197 25.1682
v  47.4645 65.4197 12.5173
v  57.3052 65.4197 -4.5273
v  57.3052 87.2263 -43.2921
v  60.7228 87.2263 -23.9097
v  47.4645 87.2263 -60.3367
v  32.3877 87.2263 -72.9877
v  13.8932 87.2263 -79.7191
v  -5.7882 87.2263 -79.7191
v  -24.2827 87.2263 -72.9877
v  -39.3595 87.2263 -60.3367
v  -49.2002 87.2263 -43.2921
v  -52.6178 87.2263 -23.9097
v  -49.2002 87.2263 -4.5273
v  -39.3595 87.2263 12.5173
v  -24.2827 87.2263 25.1682
v  -5.7882 87.2263 31.8997
v  13.8932 87.2263 31.8997
v  32.3876 87.2263 25.1682
v  47.4645 87.2263 12.5173
v  57.3052 87.2263 -4.5273
v  57.3052 109.0329 -43.2921
v  60.7228 109.0329 -23.9097
v  47.4645 109.0329 -60.3367
v  32.3877 109.0329 -72.9877
v  13.8932 109.0329 -79.7191
v  -5.7882 109.0329 -79.7191
v  -24.2827 109.0329 -72.9877
v  -39.3595 109.0329 -60.3367
v  -49.2002 109.0329 -43.2921
v  -52.6178 109.0329 -23.9097
v  -49.2002 109.0329 -4.5273
v  -39.3595 109.0329 12.5173
v  -24.2827 109.0329 25.1682
v  -5.7882 109.0329 31.8997
v  13.8932 109.0329 31.8997
v  32.3876 109.0329 25.1682
v  47.4645 109.0329 12.5173
v  57.3052 109.0329 -4.5273
v  53.0396 109.0329 -41.7396
v  56.1835 109.0329 -23.9097
v  43.9872 109.0329 -57.4189
v  30.1180 109.0329 -69.0565
v  13.1050 109.0329 -75.2488
v  -5.0000 109.0329 -75.2488
v  -22.0130 109.0329 -69.0565
v  -35.8822 109.0329 -57.4189
v  -44.9346 109.0329 -41.7396
v  -48.0785 109.0329 -23.9097
v  -44.9346 109.0329 -6.0799
v  -35.8822 109.0329 9.5994
v  -22.0130 109.0329 21.2371
v  -5.0000 109.0329 27.4293
v  13.1049 109.0329 27.4293
v  30.1180 109.0329 21.2371
v  43.9872 109.0329 9.5995
v  53.0396 109.0329 -6.0798
v  53.0396 -0.0000 -6.0798
v  56.1835 -0.0000 -23.9097
v  53.0396 -0.0000 -41.7396
v  43.9872 -0.0000 -57.4189
v  30.1180 -0.0000 -69.0565
v  13.1050 -0.0000 -75.2488
v  -5.0000 -0.0000 -75.2488
v  -22.0130 -0.0000 -69.0565
v  -35.8822 -0.0000 -57.4189
v  -44.9346 -0.0000 -41.7396
v  -48.0785 -0.0000 -23.9097
v  -44.9346 -0.0000 -6.0799
v  -35.8822 -0.0000 9.5994
v  -22.0130 -0.0000 21.2371
v  -5.0000 -0.0000 27.4293
v  13.1049 -0.0000 27.4293
v  30.1180 -0.0000 21.2371
v  43.9872 -0.0000 9.5995
# 144 vertices

vn 0.7424 -0.6699 0.0000
vn 0.6975 -0.6701 -0.2539
vn 0.9397 0.0000 -0.3420
vn 1.0000 0.0000 0.0000
vn 0.5687 -0.6700 -0.4772
vn 0.7660 0.0000 -0.6428
vn 0.3712 -0.6700 -0.6429
vn 0.5000 0.0000 -0.8660
vn 0.1289 -0.6700 -0.7311
vn 0.1736 0.0000 -0.9848
vn -0.1289 -0.6700 -0.7311
vn -0.1736 0.0000 -0.9848
vn -0.3712 -0.6700 -0.6429
vn -0.5000 0.0000 -0.8660
vn -0.5687 -0.6700 -0.4772
vn -0.7661 0.0000 -0.6428
vn -0.6976 -0.6700 -0.2539
vn -0.9397 0.0000 -0.3420
vn -0.7423 -0.6700 -0.0000
vn -1.0000 0.0000 -0.0000
vn -0.6976 -0.6700 0.2539
vn -0.9397 0.0000 0.3420
vn -0.5687 -0.6700 0.4772
vn -0.7660 0.0000 0.6428
vn -0.3712 -0.6700 0.6429
vn -0.5000 0.0000 0.8660
vn -0.1289 -0.6700 0.7311
vn -0.1736 0.0000 0.9848
vn 0.1289 -0.6700 0.7311
vn 0.1736 0.0000 0.9848
vn 0.3712 -0.6700 0.6429
vn 0.5000 0.0000 0.8660
vn 0.5687 -0.6700 0.4772
vn 0.7660 0.0000 0.6428
vn 0.6976 -0.6700 0.2539
vn 0.9397 0.0000 0.3420
vn -0.7660 0.0000 -0.6428
vn 0.6975 0.6701 -0.2539
vn 0.7423 0.6701 0.0000
vn 0.5687 0.6700 -0.4772
vn 0.3712 0.6700 -0.6429
vn 0.1289 0.6700 -0.7311
vn -0.1289 0.6701 -0.7310
vn -0.3712 0.6701 -0.6428
vn -0.5687 0.6700 -0.4772
vn -0.6976 0.6700 -0.2539
vn -0.7423 0.6700 -0.0000
vn -0.6976 0.6700 0.2539
vn -0.5687 0.6700 0.4772
vn -0.3712 0.6700 0.6429
vn -0.1289 0.6700 0.7311
vn 0.1289 0.6701 0.7310
vn 0.3712 0.6701 0.6428
vn 0.5687 0.6700 0.4772
vn 0.6975 0.6701 0.2539
vn -0.6233 0.7483 0.2269
vn -0.6632 0.7484 -0.0000
vn -0.5081 0.7484 0.4263
vn -0.3316 0.7484 0.5744
vn -0.1152 0.7484 0.6532
vn 0.1152 0.7484 0.6532
vn 0.3316 0.7484 0.5744
vn 0.5081 0.7484 0.4264
vn 0.6233 0.7483 0.2269
vn 0.6633 0.7484 -0.0000
vn 0.6233 0.7484 -0.2269
vn 0.5081 0.7484 -0.4264
vn 0.3316 0.7484 -0.5744
vn 0.1152 0.7484 -0.6532
vn -0.1152 0.7484 -0.6532
vn -0.3316 0.7484 -0.5744
vn -0.5081 0.7484 -0.4264
vn -0.6232 0.7484 -0.2269
vn -0.6232 -0.7484 -0.2269
vn -0.6633 -0.7484 0.0000
vn -0.6233 -0.7484 0.2269
vn -0.5081 -0.7484 0.4264
vn -0.3316 -0.7484 0.5744
vn -0.1152 -0.7484 0.6532
vn 0.1152 -0.7484 0.6532
vn 0.3316 -0.7484 0.5744
vn 0.5081 -0.7484 0.4263
vn 0.6233 -0.7483 0.2269
vn 0.6633 -0.7484 0.0000
vn 0.6233 -0.7484 -0.2269
vn 0.5081 -0.7484 -0.4263
vn 0.3316 -0.7484 -0.5744
vn 0.1152 -0.7484 -0.6532
vn -0.1152 -0.7484 -0.6532
vn -0.3316 -0.7484 -0.5744
vn -0.5081 -0.7484 -0.4264
# 91 vertex normals

vt 0.7500 0.0000 1.0000
vt 0.8056 0.0000 1.0000
vt 0.8056 0.2000 1.0000
vt 0.7500 0.2000 1.0000
vt 0.8611 0.0000 1.0000
vt 0.8611 0.2000 1.0000
vt 0.9167 0.0000 1.0000
vt 0.9167 0.2000 1.0000
vt 0.9722 0.0000 1.0000
vt 0.9722 0.2000 1.0000
vt -0.0278 0.0000 1.0000
vt 0.0278 0.0000 1.0000
vt 0.0278 0.2000 1.0000
vt -0.0278 0.2000 1.0000
vt 0.0833 0.0000 1.0000
vt 0.0833 0.2000 1.0000
vt 0.1389 0.0000 1.0000
vt 0.1389 0.2000 1.0000
vt 0.1944 0.0000 1.0000
vt 0.1944 0.2000 1.0000
vt 0.2500 0.0000 1.0000
vt 0.2500 0.2000 1.0000
vt 0.3056 0.0000 1.0000
vt 0.3056 0.2000 1.0000
vt 0.3611 0.0000 1.0000
vt 0.3611 0.2000 1.0000
vt 0.4167 0.0000 1.0000
vt 0.4167 0.2000 1.0000
vt 0.4722 0.0000 1.0000
vt 0.4722 0.2000 1.0000
vt 0.5278 0.0000 1.0000
vt 0.5278 0.2000 1.0000
vt 0.5833 0.0000 1.0000
vt 0.5833 0.2000 1.0000
vt 0.6389 0.0000 1.0000
vt 0.6389 0.2000 1.0000
vt 0.6944 0.0000 1.0000
vt 0.6944 0.2000 1.0000
vt 0.8056 0.4000 1.0000
vt 0.7500 0.4000 1.0000
vt 0.8611 0.4000 1.0000
vt 0.9167 0.4000 1.0000
vt 0.9722 0.4000 1.0000
vt 0.0278 0.4000 1.0000
vt -0.0278 0.4000 1.0000
vt 0.0833 0.4000 1.0000
vt 0.1389 0.4000 1.0000
vt 0.1944 0.4000 1.0000
vt 0.2500 0.4000 1.0000
vt 0.3056 0.4000 1.0000
vt 0.3611 0.4000 1.0000
vt 0.4167 0.4000 1.0000
vt 0.4722 0.4000 1.0000
vt 0.5278 0.4000 1.0000
vt 0.5833 0.4000 1.0000
vt 0.6389 0.4000 1.0000
vt 0.6944 0.4000 1.0000
vt 0.8056 0.6000 1.0000
vt 0.7500 0.6000 1.0000
vt 0.8611 0.6000 1.0000
vt 0.9167 0.6000 1.0000
vt 0.9722 0.6000 1.0000
vt 0.0278 0.6000 1.0000
vt -0.0278 0.6000 1.0000
vt 0.0833 0.6000 1.0000
vt 0.1389 0.6000 1.0000
vt 0.1944 0.6000 1.0000
vt 0.2500 0.6000 1.0000
vt 0.3056 0.6000 1.0000
vt 0.3611 0.6000 1.0000
vt 0.4167 0.6000 1.0000
vt 0.4722 0.6000 1.0000
vt 0.5278 0.6000 1.0000
vt 0.5833 0.6000 1.0000
vt 0.6389 0.6000 1.0000
vt 0.6944 0.6000 1.0000
vt 0.8056 0.8000 1.0000
vt 0.7500 0.8000 1.0000
vt 0.8611 0.8000 1.0000
vt 0.9167 0.8000 1.0000
vt 0.9722 0.8000 1.0000
vt 0.0278 0.8000 1.0000
vt -0.0278 0.8000 1.0000
vt 0.0833 0.8000 1.0000
vt 0.1389 0.8000 1.0000
vt 0.1944 0.8000 1.0000
vt 0.2500 0.8000 1.0000
vt 0.3056 0.8000 1.0000
vt 0.3611 0.8000 1.0000
vt 0.4167 0.8000 1.0000
vt 0.4722 0.8000 1.0000
vt 0.5278 0.8000 1.0000
vt 0.5833 0.8000 1.0000
vt 0.6389 0.8000 1.0000
vt 0.6944 0.8000 1.0000
vt 0.8056 1.0000 1.0000
vt 0.7500 1.0000 1.0000
vt 0.8611 1.0000 1.0000
vt 0.9167 1.0000 1.0000
vt 0.9722 1.0000 1.0000
vt 0.0278 1.0000 1.0000
vt -0.0278 1.0000 1.0000
vt 0.0833 1.0000 1.0000
vt 0.1389 1.0000 1.0000
vt 0.1944 1.0000 1.0000
vt 0.2500 1.0000 1.0000
vt 0.3056 1.0000 1.0000
vt 0.3611 1.0000 1.0000
vt 0.4167 1.0000 1.0000
vt 0.4722 1.0000 1.0000
vt 0.5278 1.0000 1.0000
vt 0.5833 1.0000 1.0000
vt 0.6389 1.0000 1.0000
vt 0.6944 1.0000 1.0000
vt 0.9708 1.0000 0.8794
vt 0.9126 1.0000 0.6527
vt 0.8047 1.0000 0.3473
vt 0.6600 1.0000 -0.0000
vt 0.4960 1.0000 -0.3473
vt 0.3325 1.0000 -0.6527
vt 0.1891 1.0000 -0.8794
vt 0.0833 1.0000 -1.0000
vt 0.0278 1.0000 -1.0000
vt 0.0292 1.0000 -0.8794
vt 0.0874 1.0000 -0.6527
vt 0.1953 1.0000 -0.3473
vt 0.5162 0.0000 0.4335
vt 0.7545 0.0000 1.0000
vt 0.3400 0.0000 0.0000
vt 0.8567 0.0000 1.0000
vt 0.9678 0.0000 1.0000
vt 0.9331 0.0000 0.8089
vt 0.9708 0.0000 0.8794
vt 0.8796 0.0000 0.6004
vt 0.9126 0.0000 0.6527
vt 0.7803 0.0000 0.3195
vt 0.8047 0.0000 0.3473
vt 0.6472 0.0000 -0.0000
vt 0.6600 0.0000 -0.0000
vt 0.4963 0.0000 -0.3195
vt 0.4960 0.0000 -0.3473
vt 0.3459 0.0000 -0.6004
vt 0.3325 0.0000 -0.6527
vt 0.2140 0.0000 -0.8089
vt 0.1891 0.0000 -0.8794
vt 0.1167 0.0000 -0.9199
vt 0.0833 0.0000 -1.0000
vt 0.0656 0.0000 -0.9199
vt 0.0278 0.0000 -1.0000
vt 0.0669 0.0000 -0.8089
vt 0.0292 0.0000 -0.8794
vt 0.1204 0.0000 -0.6004
vt 0.0874 0.0000 -0.6527
vt 0.2197 0.0000 -0.3195
vt 0.1953 0.0000 -0.3473
# 155 texture coords

o Cylinder001
g Cylinder001
f -144/-155/-91 -143/-154/-90 -142/-153/-89 -141/-152/-88 
f -143/-154/-90 -140/-151/-87 -139/-150/-86 -142/-153/-89 
f -140/-151/-87 -138/-149/-85 -137/-148/-84 -139/-150/-86 
f -138/-149/-85 -136/-147/-83 -135/-146/-82 -137/-148/-84 
f -136/-145/-83 -134/-144/-81 -133/-143/-80 -135/-142/-82 
f -134/-144/-81 -132/-141/-79 -131/-140/-78 -133/-143/-80 
f -132/-141/-79 -130/-139/-77 -129/-138/-76 -131/-140/-78 
f -130/-139/-77 -128/-137/-75 -127/-136/-74 -129/-138/-76 
f -128/-137/-75 -126/-135/-73 -125/-134/-72 -127/-136/-74 
f -126/-135/-73 -124/-133/-71 -123/-132/-70 -125/-134/-72 
f -124/-133/-71 -122/-131/-69 -121/-130/-68 -123/-132/-70 
f -122/-131/-69 -120/-129/-67 -119/-128/-66 -121/-130/-68 
f -120/-129/-67 -118/-127/-65 -117/-126/-64 -119/-128/-66 
f -118/-127/-65 -116/-125/-63 -115/-124/-62 -117/-126/-64 
f -116/-125/-63 -114/-123/-61 -113/-122/-60 -115/-124/-62 
f -114/-123/-61 -112/-121/-59 -111/-120/-58 -113/-122/-60 
f -112/-121/-59 -110/-119/-57 -109/-118/-56 -111/-120/-58 
f -110/-119/-57 -144/-155/-91 -141/-152/-88 -109/-118/-56 
f -141/-152/-88 -142/-153/-89 -108/-117/-89 -107/-116/-88 
f -142/-153/-89 -139/-150/-86 -106/-115/-86 -108/-117/-89 
f -139/-150/-86 -137/-148/-84 -105/-114/-84 -106/-115/-86 
f -137/-148/-84 -135/-146/-82 -104/-113/-82 -105/-114/-84 
f -135/-142/-82 -133/-143/-80 -103/-112/-80 -104/-111/-82 
f -133/-143/-80 -131/-140/-78 -102/-110/-78 -103/-112/-80 
f -131/-140/-78 -129/-138/-76 -101/-109/-55 -102/-110/-78 
f -129/-138/-76 -127/-136/-74 -100/-108/-74 -101/-109/-55 
f -127/-136/-74 -125/-134/-72 -99/-107/-72 -100/-108/-74 
f -125/-134/-72 -123/-132/-70 -98/-106/-70 -99/-107/-72 
f -123/-132/-70 -121/-130/-68 -97/-105/-68 -98/-106/-70 
f -121/-130/-68 -119/-128/-66 -96/-104/-66 -97/-105/-68 
f -119/-128/-66 -117/-126/-64 -95/-103/-64 -96/-104/-66 
f -117/-126/-64 -115/-124/-62 -94/-102/-62 -95/-103/-64 
f -115/-124/-62 -113/-122/-60 -93/-101/-60 -94/-102/-62 
f -113/-122/-60 -111/-120/-58 -92/-100/-58 -93/-101/-60 
f -111/-120/-58 -109/-118/-56 -91/-99/-56 -92/-100/-58 
f -109/-118/-56 -141/-152/-88 -107/-116/-88 -91/-99/-56 
f -107/-116/-88 -108/-117/-89 -90/-98/-89 -89/-97/-88 
f -108/-117/-89 -106/-115/-86 -88/-96/-86 -90/-98/-89 
f -106/-115/-86 -105/-114/-84 -87/-95/-84 -88/-96/-86 
f -105/-114/-84 -104/-113/-82 -86/-94/-82 -87/-95/-84 
f -104/-111/-82 -103/-112/-80 -85/-93/-80 -86/-92/-82 
f -103/-112/-80 -102/-110/-78 -84/-91/-78 -85/-93/-80 
f -102/-110/-78 -101/-109/-55 -83/-90/-55 -84/-91/-78 
f -101/-109/-55 -100/-108/-74 -82/-89/-74 -83/-90/-55 
f -100/-108/-74 -99/-107/-72 -81/-88/-72 -82/-89/-74 
f -99/-107/-72 -98/-106/-70 -80/-87/-70 -81/-88/-72 
f -98/-106/-70 -97/-105/-68 -79/-86/-68 -80/-87/-70 
f -97/-105/-68 -96/-104/-66 -78/-85/-66 -79/-86/-68 
f -96/-104/-66 -95/-103/-64 -77/-84/-64 -78/-85/-66 
f -95/-103/-64 -94/-102/-62 -76/-83/-62 -77/-84/-64 
f -94/-102/-62 -93/-101/-60 -75/-82/-60 -76/-83/-62 
f -93/-101/-60 -92/-100/-58 -74/-81/-58 -75/-82/-60 
f -92/-100/-58 -91/-99/-56 -73/-80/-56 -74/-81/-58 
f -91/-99/-56 -107/-116/-88 -89/-97/-88 -73/-80/-56 
f -89/-97/-88 -90/-98/-89 -72/-79/-89 -71/-78/-88 
f -90/-98/-89 -88/-96/-86 -70/-77/-86 -72/-79/-89 
f -88/-96/-86 -87/-95/-84 -69/-76/-84 -70/-77/-86 
f -87/-95/-84 -86/-94/-82 -68/-75/-82 -69/-76/-84 
f -86/-92/-82 -85/-93/-80 -67/-74/-80 -68/-73/-82 
f -85/-93/-80 -84/-91/-78 -66/-72/-78 -67/-74/-80 
f -84/-91/-78 -83/-90/-55 -65/-71/-55 -66/-72/-78 
f -83/-90/-55 -82/-89/-74 -64/-70/-74 -65/-71/-55 
f -82/-89/-74 -81/-88/-72 -63/-69/-72 -64/-70/-74 
f -81/-88/-72 -80/-87/-70 -62/-68/-70 -63/-69/-72 
f -80/-87/-70 -79/-86/-68 -61/-67/-68 -62/-68/-70 
f -79/-86/-68 -78/-85/-66 -60/-66/-66 -61/-67/-68 
f -78/-85/-66 -77/-84/-64 -59/-65/-64 -60/-66/-66 
f -77/-84/-64 -76/-83/-62 -58/-64/-62 -59/-65/-64 
f -76/-83/-62 -75/-82/-60 -57/-63/-60 -58/-64/-62 
f -75/-82/-60 -74/-81/-58 -56/-62/-58 -57/-63/-60 
f -74/-81/-58 -73/-80/-56 -55/-61/-56 -56/-62/-58 
f -73/-80/-56 -89/-97/-88 -71/-78/-88 -55/-61/-56 
f -71/-78/-88 -72/-79/-89 -54/-60/-54 -53/-59/-53 
f -72/-79/-89 -70/-77/-86 -52/-58/-52 -54/-60/-54 
f -70/-77/-86 -69/-76/-84 -51/-57/-51 -52/-58/-52 
f -69/-76/-84 -68/-75/-82 -50/-56/-50 -51/-57/-51 
f -68/-73/-82 -67/-74/-80 -49/-55/-49 -50/-54/-50 
f -67/-74/-80 -66/-72/-78 -48/-53/-48 -49/-55/-49 
f -66/-72/-78 -65/-71/-55 -47/-52/-47 -48/-53/-48 
f -65/-71/-55 -64/-70/-74 -46/-51/-46 -47/-52/-47 
f -64/-70/-74 -63/-69/-72 -45/-50/-45 -46/-51/-46 
f -63/-69/-72 -62/-68/-70 -44/-49/-44 -45/-50/-45 
f -62/-68/-70 -61/-67/-68 -43/-48/-43 -44/-49/-44 
f -61/-67/-68 -60/-66/-66 -42/-47/-42 -43/-48/-43 
f -60/-66/-66 -59/-65/-64 -41/-46/-41 -42/-47/-42 
f -59/-65/-64 -58/-64/-62 -40/-45/-40 -41/-46/-41 
f -58/-64/-62 -57/-63/-60 -39/-44/-39 -40/-45/-40 
f -57/-63/-60 -56/-62/-58 -38/-43/-38 -39/-44/-39 
f -56/-62/-58 -55/-61/-56 -37/-42/-37 -38/-43/-38 
f -55/-61/-56 -71/-78/-88 -53/-59/-53 -37/-42/-37 
f -53/-59/-53 -54/-60/-54 -36/-60/-36 -35/-59/-35 
f -54/-60/-54 -52/-58/-52 -34/-58/-34 -36/-60/-36 
f -52/-58/-52 -51/-57/-51 -33/-57/-33 -34/-58/-34 
f -51/-57/-51 -50/-56/-50 -32/-56/-32 -33/-57/-33 
f -50/-56/-50 -49/-41/-49 -31/-41/-31 -32/-56/-32 
f -49/-41/-49 -48/-40/-48 -30/-40/-30 -31/-41/-31 
f -48/-40/-48 -47/-39/-47 -29/-39/-29 -30/-40/-30 
f -47/-39/-47 -46/-38/-46 -28/-38/-28 -29/-39/-29 
f -46/-38/-46 -45/-37/-45 -27/-37/-27 -28/-38/-28 
f -45/-37/-45 -44/-36/-44 -26/-36/-26 -27/-37/-27 
f -44/-36/-44 -43/-35/-43 -25/-35/-25 -26/-36/-26 
f -43/-35/-43 -42/-34/-42 -24/-34/-24 -25/-35/-25 
f -42/-34/-42 -41/-33/-41 -23/-33/-23 -24/-34/-24 
f -41/-33/-41 -40/-32/-40 -22/-32/-22 -23/-33/-23 
f -40/-32/-40 -39/-31/-39 -21/-31/-21 -22/-32/-22 
f -39/-31/-39 -38/-30/-38 -20/-30/-20 -21/-31/-21 
f -38/-30/-38 -37/-42/-37 -19/-42/-19 -20/-30/-20 
f -37/-42/-37 -53/-59/-53 -35/-59/-35 -19/-42/-19 
f -18/-29/-18 -17/-28/-17 -144/-155/-91 -110/-27/-57 
f -17/-28/-17 -16/-154/-16 -143/-154/-90 -144/-155/-91 
f -16/-154/-16 -15/-26/-15 -140/-151/-87 -143/-154/-90 
f -15/-26/-15 -14/-149/-14 -138/-149/-85 -140/-151/-87 
f -14/-149/-14 -13/-25/-13 -136/-147/-83 -138/-149/-85 
f -13/-25/-13 -12/-24/-12 -134/-23/-81 -136/-147/-83 
f -12/-24/-12 -11/-22/-11 -132/-21/-79 -134/-23/-81 
f -11/-22/-11 -10/-20/-10 -130/-19/-77 -132/-21/-79 
f -10/-20/-10 -9/-18/-9 -128/-17/-75 -130/-19/-77 
f -9/-18/-9 -8/-16/-8 -126/-15/-73 -128/-17/-75 
f -8/-16/-8 -7/-14/-7 -124/-13/-71 -126/-15/-73 
f -7/-14/-7 -6/-12/-6 -122/-11/-69 -124/-13/-71 
f -6/-12/-6 -5/-10/-5 -120/-9/-67 -122/-11/-69 
f -5/-10/-5 -4/-8/-4 -118/-7/-65 -120/-9/-67 
f -4/-8/-4 -3/-6/-3 -116/-5/-63 -118/-7/-65 
f -3/-6/-3 -2/-4/-2 -114/-3/-61 -116/-5/-63 
f -2/-4/-2 -1/-2/-1 -112/-1/-59 -114/-3/-61 
f -1/-2/-1 -18/-29/-18 -110/-27/-57 -112/-1/-59 
f -17/-59/-17 -18/-42/-18 -19/-42/-19 -35/-59/-35 
f -16/-60/-16 -17/-59/-17 -35/-59/-35 -36/-60/-36 
f -15/-58/-15 -16/-60/-16 -36/-60/-36 -34/-58/-34 
f -14/-57/-14 -15/-58/-15 -34/-58/-34 -33/-57/-33 
f -13/-56/-13 -14/-57/-14 -33/-57/-33 -32/-56/-32 
f -12/-41/-12 -13/-56/-13 -32/-56/-32 -31/-41/-31 
f -11/-40/-11 -12/-41/-12 -31/-41/-31 -30/-40/-30 
f -10/-39/-10 -11/-40/-11 -30/-40/-30 -29/-39/-29 
f -9/-38/-9 -10/-39/-10 -29/-39/-29 -28/-38/-28 
f -8/-37/-8 -9/-38/-9 -28/-38/-28 -27/-37/-27 
f -7/-36/-7 -8/-37/-8 -27/-37/-27 -26/-36/-26 
f -6/-35/-6 -7/-36/-7 -26/-36/-26 -25/-35/-25 
f -5/-34/-5 -6/-35/-6 -25/-35/-25 -24/-34/-24 
f -4/-33/-4 -5/-34/-5 -24/-34/-24 -23/-33/-23 
f -3/-32/-3 -4/-33/-4 -23/-33/-23 -22/-32/-22 
f -2/-31/-2 -3/-32/-3 -22/-32/-22 -21/-31/-21 
f -1/-30/-1 -2/-31/-2 -21/-31/-21 -20/-30/-20 
f -18/-42/-18 -1/-30/-1 -20/-30/-20 -19/-42/-19 
# 144 polygons

