# 3ds Max Wavefront OBJ Exporter v0.99 - (c)2007 guruware
# 创建的文件:05.12.2025 15:29:20

mtllib 圆.mtl

#
# object Circle001
#

v  -6.6342 0.0000 36.3930
v  1.5058 0.0000 37.3321
v  9.6458 0.0000 36.3930
v  -14.1095 0.0000 33.7182
v  17.1211 0.0000 33.7182
v  23.7175 0.0000 29.5221
v  -20.7059 0.0000 29.5221
v  -26.2092 0.0000 24.0187
v  29.2209 0.0000 24.0187
v  33.4170 0.0000 17.4223
v  36.0918 0.0000 9.9470
v  37.0309 0.0000 1.8070
v  36.0918 0.0000 -6.3330
v  33.4170 0.0000 -13.8083
v  29.2209 0.0000 -20.4047
v  23.7175 0.0000 -25.9080
v  17.1211 0.0000 -30.1042
v  9.6458 0.0000 -32.7789
v  1.5058 0.0000 -33.7181
v  -6.6342 0.0000 -32.7789
v  -14.1095 0.0000 -30.1042
v  -20.7059 0.0000 -25.9080
v  -26.2092 0.0000 -20.4047
v  -30.4054 0.0000 -13.8083
v  -33.0801 0.0000 -6.3330
v  -34.0193 0.0000 1.8070
v  -33.0801 0.0000 9.9470
v  -30.4054 0.0000 17.4223
# 28 vertices

vn 0.0000 1.0000 -0.0000
# 1 vertex normals

o Circle001
g Circle001
usemtl wire_153228184
f -28//-1 -27//-1 -26//-1 
f -25//-1 -28//-1 -26//-1 
f -25//-1 -26//-1 -24//-1 
f -25//-1 -24//-1 -23//-1 
f -22//-1 -25//-1 -23//-1 
f -21//-1 -22//-1 -23//-1 
f -21//-1 -23//-1 -20//-1 
f -21//-1 -20//-1 -19//-1 
f -21//-1 -19//-1 -18//-1 
f -21//-1 -18//-1 -17//-1 
f -21//-1 -17//-1 -16//-1 
f -21//-1 -16//-1 -15//-1 
f -21//-1 -15//-1 -14//-1 
f -21//-1 -14//-1 -13//-1 
f -21//-1 -13//-1 -12//-1 
f -21//-1 -12//-1 -11//-1 
f -21//-1 -11//-1 -10//-1 
f -21//-1 -10//-1 -9//-1 
f -21//-1 -9//-1 -8//-1 
f -21//-1 -8//-1 -7//-1 
f -21//-1 -7//-1 -6//-1 
f -21//-1 -6//-1 -5//-1 
f -21//-1 -5//-1 -4//-1 
f -21//-1 -4//-1 -3//-1 
f -21//-1 -3//-1 -2//-1 
f -21//-1 -2//-1 -1//-1 
# 0 polygons - 26 triangles

