# 3ds Max Wavefront OBJ Exporter v0.99 - (c)2007 guruware
# 创建的文件:24.10.2025 05:48:07

#
# object Tube001
#

v  56.0326 -2.5394 24.1902
v  56.0326 -2.5394 -92.2454
v  68.7439 -0.2980 -92.2454
v  68.7439 -0.2981 24.1902
v  56.0326 0.5978 -92.2454
v  67.6709 2.6499 -92.2454
v  56.0326 0.5978 24.1902
v  67.6709 2.6499 24.1902
v  56.0326 0.5978 55.3185
v  67.6709 2.6499 67.3377
v  79.9220 6.1556 -92.2454
v  79.9220 6.1556 24.1902
v  77.9055 8.5589 -92.2454
v  77.9055 8.5588 24.1902
v  77.9055 8.5588 77.9073
v  88.2187 16.0433 -92.2454
v  88.2187 16.0432 24.1902
v  85.5018 17.6118 -92.2454
v  85.5018 17.6118 24.1902
v  81.0815 12.3439 81.1873
v  85.5018 17.6118 75.9401
v  92.6333 28.1722 -92.2454
v  92.6333 28.1722 24.1902
v  89.5438 28.7170 -92.2454
v  89.5438 28.7170 24.1902
v  89.5438 28.7170 64.8786
v  92.6333 41.0796 -92.2454
v  92.6333 41.0796 24.1902
v  89.5438 40.5348 -92.2454
v  89.5438 40.5348 24.1902
v  89.5438 40.5348 53.1072
v  88.2187 53.2085 -92.2454
v  88.2187 53.2085 24.1902
v  85.5018 51.6400 -92.2454
v  85.5018 51.6399 24.1902
v  85.5018 51.6399 42.0457
v  79.9220 63.0962 -92.2454
v  79.9220 63.0962 24.1902
v  77.9055 60.6929 -92.2454
v  77.9055 60.6929 24.1902
v  77.9055 60.6929 33.0282
v  68.7439 69.5498 -92.2454
v  68.7137 69.5578 24.1982
v  67.6709 66.6019 -92.2454
v  67.6709 66.6019 24.1902
v  67.6709 66.6018 27.1425
v  56.0326 71.7912 -92.2454
v  56.0326 71.7912 21.9736
v  56.0326 68.6540 -92.2454
v  56.0326 68.6540 24.1902
v  56.0326 68.6540 25.0984
v  44.3943 66.6019 -92.2454
v  43.3213 69.5498 -92.2454
v  44.3943 66.6018 24.1902
v  44.3943 66.6018 27.1425
v  43.3515 69.5578 24.1982
v  32.1432 63.0961 -92.2454
v  32.1432 63.0961 24.1902
v  34.1598 60.6929 -92.2454
v  34.1598 60.6929 24.1902
v  34.3455 60.8002 32.9214
v  34.1598 60.6929 32.7296
v  23.8465 53.2085 -92.2454
v  23.8465 53.2085 22.0787
v  25.8911 55.6451 24.1902
v  26.5634 51.6399 -92.2454
v  26.5634 51.6399 24.1902
v  26.5634 51.6399 24.8846
v  22.5215 40.5348 -92.2454
v  19.4319 41.0796 -92.2454
v  25.8911 49.7927 24.1902
v  22.5215 40.5348 20.7103
v  22.5215 28.7170 -92.2454
v  19.4320 28.1722 -92.2454
v  22.5215 28.7170 20.7103
v  26.5634 17.6118 -92.2454
v  23.8465 16.0433 -92.2454
v  25.8911 19.4591 24.1902
v  26.5634 17.6118 24.1902
v  34.1598 8.5588 -92.2454
v  32.1432 6.1556 -92.2454
v  34.1598 8.5588 24.1902
v  26.5634 17.6118 24.8846
v  34.1598 8.5588 32.7296
v  32.1432 6.1556 24.1902
v  43.3213 -0.2980 -92.2454
v  43.3213 -0.2981 24.1902
v  44.3943 2.6499 -92.2454
v  44.3943 2.6499 24.1902
v  44.3943 2.6499 43.2992
v  88.2187 16.0432 77.5025
v  92.6333 28.1722 65.4212
v  92.6333 41.0796 52.5645
v  88.2187 53.2085 40.4832
v  79.9220 63.0961 30.6344
v  32.1372 63.0928 30.6409
v  88.2187 69.3552 77.7123
v  92.6333 69.4029 65.5835
v  92.6333 185.8376 66.0417
v  88.2187 185.7899 78.1706
v  89.5438 185.8398 65.4970
v  85.5018 185.7961 76.6020
v  89.5438 69.4050 65.0387
v  85.5018 69.3613 76.1438
v  92.6333 69.4537 52.6762
v  92.6333 185.8884 53.1344
v  89.5438 185.8863 53.6792
v  89.5438 69.4516 53.2210
v  88.2187 69.5014 40.5473
v  88.2187 185.9362 41.0056
v  85.5018 185.9300 42.5742
v  85.5018 69.4953 42.1159
v  79.9220 69.5403 30.6598
v  79.9220 185.9751 31.1180
v  77.9055 185.9656 33.5212
v  77.9055 69.5309 33.0630
v  68.7439 186.0005 24.6644
v  67.6709 185.9889 27.6124
v  67.6709 69.5541 27.1541
v  56.0326 186.0093 22.4231
v  56.0326 185.9969 25.5602
v  56.0326 69.5622 25.1020
v  43.3213 186.0005 24.6644
v  44.3943 185.9889 27.6124
v  44.3943 69.5541 27.1541
v  32.1512 69.5404 30.6552
v  32.4358 185.9757 30.9492
v  34.6515 185.9667 33.2374
v  34.3669 69.5314 32.9435
v  19.4319 41.0796 17.5197
v  19.4319 28.1722 17.5197
v  23.8465 16.0432 22.0788
v  25.8911 13.6067 24.1902
v  56.0326 -2.5394 55.3185
v  68.7439 -0.2981 68.4458
v  79.9220 6.1556 79.9899
v  83.2383 10.1078 83.4147
v  32.1432 6.1556 30.6470
v  43.3214 -0.2981 42.1911
v  83.3430 69.3323 83.5229
v  83.5490 185.7680 83.7356
v  81.3884 185.7768 81.5042
v  81.1824 69.3411 81.2915
v  24.9205 -2.5394 54.3161
v  24.5112 -0.2981 67.0208
v  -91.8641 -0.2981 63.2717
v  -91.4548 -2.5394 50.5670
v  -91.8295 2.6499 62.1992
v  -91.4548 0.5978 50.5670
v  24.5458 2.6499 65.9484
v  24.9205 0.5978 54.3161
v  24.1513 6.1556 78.1931
v  -92.2240 6.1556 74.4440
v  -92.1590 8.5588 72.4285
v  24.2162 8.5588 76.1776
v  23.8841 16.0432 86.4855
v  -92.4911 16.0432 82.7364
v  -92.4036 17.6118 80.0209
v  23.9716 17.6118 83.7701
v  75.6947 17.6118 85.4364
v  23.7420 28.1722 90.8978
v  -92.6333 28.1722 87.1487
v  -92.5338 28.7170 84.0607
v  23.8415 28.7170 87.8099
v  64.5088 28.7170 89.1200
v  23.7420 41.0796 90.8978
v  -92.6333 41.0796 87.1487
v  -92.5338 40.5348 84.0607
v  23.8415 40.5348 87.8099
v  52.7435 40.5348 88.7410
v  23.8841 53.2085 86.4855
v  -92.4911 53.2085 82.7364
v  -92.4036 51.6399 80.0209
v  23.9716 51.6399 83.7701
v  41.8178 51.6399 84.3450
v  24.1513 63.0961 78.1931
v  -92.2240 63.0961 74.4440
v  -92.1590 60.6929 72.4285
v  24.2162 60.6929 76.1776
v  33.0497 60.6929 76.4622
v  24.5201 69.5578 66.9909
v  -91.8641 69.5498 63.2716
v  -91.8295 66.6018 62.1992
v  24.5458 66.6018 65.9484
v  27.4966 66.6018 66.0434
v  22.7050 71.7912 54.2448
v  -91.4548 71.7912 50.5670
v  -91.4548 68.6540 50.5670
v  24.9205 68.6540 54.3161
v  25.8283 68.6540 54.3454
v  -91.0454 69.5498 37.8623
v  -91.0800 66.6018 38.9347
v  25.2953 66.6018 42.6839
v  28.2460 66.6018 42.7789
v  25.3368 69.5578 41.6419
v  25.6897 63.0961 30.4391
v  -90.6855 63.0961 26.6900
v  -90.7505 60.6929 28.7055
v  25.6248 60.6929 32.4546
v  -90.4184 53.2085 18.3976
v  -90.5059 51.6399 21.1130
v  25.8694 51.6399 24.8622
v  -90.2762 41.0796 13.9853
v  -90.3757 40.5348 17.0732
v  -90.2762 28.1722 13.9853
v  -90.3757 28.7170 17.0732
v  -90.4184 16.0432 18.3976
v  -90.5059 17.6118 21.1130
v  25.8694 17.6118 24.8622
v  -90.6855 6.1556 26.6900
v  -90.7505 8.5588 28.7055
v  25.6248 8.5588 32.4546
v  25.6897 6.1556 30.4391
v  25.3298 -0.2981 41.6115
v  -91.0454 -0.2981 37.8623
v  -91.0800 2.6499 38.9347
v  25.2953 2.6499 42.6839
v  77.1688 16.0432 88.2022
v  64.9516 28.1722 92.2254
v  52.1016 41.0796 91.8115
v  40.1687 53.2085 87.0102
v  30.5922 63.0961 78.4006
v  77.3785 69.3552 88.2089
v  77.8365 185.7899 88.2237
v  65.5718 185.8376 92.2454
v  65.1138 69.4029 92.2307
v  76.3562 185.7961 85.4577
v  65.1268 185.8398 89.1400
v  75.8982 69.3613 85.4429
v  64.6688 69.4050 89.1252
v  52.6712 185.8884 91.8298
v  52.2132 69.4537 91.8151
v  53.3152 185.8863 88.7594
v  52.8572 69.4516 88.7447
v  40.6908 185.9362 87.0270
v  40.2328 69.5014 87.0122
v  42.3461 185.9300 84.3620
v  41.8881 69.4953 84.3473
v  31.0755 185.9751 78.4162
v  30.6175 69.5403 78.4014
v  33.5424 185.9656 76.4781
v  33.0844 69.5309 76.4633
v  24.9852 186.0005 67.0361
v  27.9662 185.9889 66.0586
v  27.5082 69.5541 66.0438
v  23.1543 186.0093 54.2592
v  26.2898 185.9969 54.3602
v  25.8318 69.5622 54.3455
v  28.7157 185.9889 42.7941
v  25.8038 186.0005 41.6267
v  28.2577 69.5541 42.7793
# 251 vertices

vn -0.0000 -1.0000 -0.0000
vn 0.0000 -0.7423 -0.6701
vn 0.2539 -0.6976 -0.6700
vn 0.3420 -0.9397 -0.0000
vn -0.0000 0.6632 -0.7484
vn -0.2269 0.6232 -0.7484
vn 0.0000 1.0000 0.0000
vn -0.3420 0.9397 0.0000
vn -0.0430 0.9981 -0.0444
vn -0.2145 0.9513 -0.2216
vn 0.4772 -0.5687 -0.6700
vn 0.6428 -0.7660 -0.0000
vn -0.4264 0.5081 -0.7484
vn -0.6428 0.7660 0.0000
vn -0.3919 0.8262 -0.4047
vn 0.6429 -0.3712 -0.6700
vn 0.8660 -0.5000 -0.0000
vn -0.5744 0.3316 -0.7484
vn -0.8660 0.5000 0.0000
vn -0.5868 0.5370 -0.6060
vn -0.8981 0.3116 -0.3104
vn 0.7311 -0.1289 -0.6700
vn 0.9848 -0.1736 -0.0000
vn -0.6532 0.1152 -0.7484
vn -0.9848 0.1736 0.0000
vn -0.9825 0.1319 -0.1314
vn 0.7311 0.1289 -0.6700
vn 0.9848 0.1736 0.0000
vn -0.6532 -0.1152 -0.7484
vn -0.9848 -0.1736 -0.0000
vn -0.9980 -0.0449 0.0447
vn 0.6429 0.3712 -0.6700
vn 0.8660 0.5000 0.0000
vn -0.5744 -0.3316 -0.7484
vn -0.8660 -0.5000 -0.0000
vn -0.9468 -0.2280 0.2271
vn 0.4772 0.5687 -0.6700
vn 0.6425 0.7662 0.0000
vn -0.4264 -0.5081 -0.7484
vn -0.6428 -0.7660 -0.0000
vn -0.8000 -0.4251 0.4234
vn 0.2539 0.6976 -0.6700
vn 0.4923 0.6167 -0.6143
vn -0.2269 -0.6233 -0.7484
vn -0.3420 -0.9397 -0.0000
vn -0.4928 -0.6165 0.6141
vn -0.0000 0.7423 -0.6700
vn 0.0000 0.7085 -0.7057
vn -0.0000 -0.6633 -0.7484
vn 0.0000 -0.7085 0.7057
vn 0.2269 -0.6232 -0.7484
vn -0.2539 0.6976 -0.6700
vn 0.4928 -0.6165 0.6141
vn -0.4923 0.6167 -0.6143
vn -0.4772 0.5687 -0.6700
vn -0.6425 0.7663 -0.0001
vn 0.4264 -0.5081 -0.7484
vn 0.5002 -0.6950 0.5165
vn 0.3134 -0.8928 0.3237
vn -0.6429 0.3712 -0.6700
vn -0.5107 0.6790 -0.5274
vn -0.4440 0.7698 -0.4585
vn 0.5744 -0.3316 -0.7484
vn 0.5107 -0.6790 0.5274
vn 0.6532 -0.1152 -0.7484
vn -0.7311 0.1289 -0.6700
vn 0.6164 -0.4636 0.6365
vn 0.6700 -0.2688 0.6920
vn 0.6532 0.1152 -0.7484
vn -0.7311 -0.1289 -0.6700
vn 0.6700 0.2688 0.6920
vn 0.5744 0.3316 -0.7484
vn -0.6429 -0.3711 -0.6701
vn 0.6164 0.4636 0.6365
vn 0.4264 0.5081 -0.7484
vn -0.4771 -0.5686 -0.6701
vn 0.6428 0.7660 -0.0000
vn 0.5107 0.6790 0.5274
vn 0.3134 0.8928 0.3237
vn -0.6428 -0.7660 0.0000
vn -0.2539 -0.6975 -0.6701
vn -0.3420 -0.9397 0.0000
vn 0.2269 0.6232 -0.7484
vn 0.3420 0.9397 -0.0000
vn 0.1293 0.9826 0.1335
vn 0.8981 -0.3116 0.3104
vn 0.9825 -0.1319 0.1314
vn 0.9980 0.0449 -0.0447
vn 0.9468 0.2280 -0.2271
vn 0.7999 0.4252 -0.4235
vn -0.5419 0.6271 -0.5596
vn 0.8660 -0.0020 0.5000
vn 0.9848 -0.0007 0.1736
vn 0.7311 0.6695 0.1315
vn 0.6429 0.6685 0.3738
vn -0.6532 0.7488 -0.1122
vn -0.5744 0.7497 -0.3287
vn -0.9848 0.0007 -0.1736
vn -0.8660 0.0020 -0.5000
vn 0.9848 0.0007 -0.1736
vn 0.7311 0.6705 -0.1263
vn -0.6532 0.7479 0.1181
vn -0.9848 -0.0007 0.1736
vn 0.8660 0.0020 -0.5000
vn 0.6429 0.6715 -0.3685
vn -0.5744 0.7471 0.3346
vn -0.8660 -0.0020 0.5000
vn 0.6425 0.0030 -0.7662
vn 0.4772 0.6723 -0.5660
vn -0.4264 0.7464 0.5110
vn -0.6428 -0.0030 0.7661
vn 0.2539 0.6728 -0.6949
vn -0.2268 0.7459 0.6262
vn -0.3420 -0.0037 0.9397
vn -0.0000 0.6729 -0.7397
vn 0.0000 0.7457 0.6662
vn 0.0000 -0.0039 1.0000
vn -0.2539 0.6728 -0.6949
vn 0.2269 0.7459 0.6262
vn 0.3420 -0.0037 0.9397
vn -0.6956 0.0033 -0.7184
vn -0.5238 0.6580 -0.5410
vn 0.4492 0.7636 0.4639
vn 0.6956 -0.0035 0.7184
vn -0.6700 0.2688 -0.6920
vn -0.6700 -0.2688 -0.6920
vn -0.5107 -0.6790 -0.5274
vn -0.4440 -0.7699 -0.4585
vn 0.0430 -0.9981 0.0444
vn 0.2145 -0.9513 0.2216
vn 0.3919 -0.8262 0.4047
vn 0.5868 -0.5370 0.6060
vn -0.3134 -0.8928 -0.3237
vn -0.1293 -0.9826 -0.1335
vn 0.6956 -0.0025 0.7184
vn 0.5087 0.6820 0.5254
vn -0.4737 0.7323 -0.4892
vn -0.6956 0.0025 -0.7184
vn 0.0000 -1.0000 -0.0000
vn -0.0110 -0.9397 0.3418
vn -0.6779 -0.6975 0.2322
vn -0.6697 -0.7423 -0.0216
vn -0.7406 0.6234 -0.2509
vn -0.7480 0.6633 -0.0241
vn 0.0110 0.9397 -0.3418
vn -0.0207 -0.7661 0.6424
vn -0.6850 -0.5687 0.4554
vn -0.7343 0.5080 -0.4502
vn 0.0207 0.7660 -0.6425
vn -0.0279 -0.5000 0.8656
vn -0.6904 -0.3712 0.6210
vn -0.7295 0.3317 -0.5982
vn 0.0279 0.5000 -0.8656
vn -0.2813 0.3116 -0.9076
vn -0.0317 -0.1736 0.9843
vn -0.6932 -0.1289 0.7091
vn -0.7269 0.1152 -0.6770
vn 0.0317 0.1736 -0.9843
vn -0.0997 0.1319 -0.9862
vn -0.0317 0.1736 0.9843
vn -0.6932 0.1289 0.7091
vn -0.7269 -0.1152 -0.6770
vn 0.0317 -0.1736 -0.9843
vn 0.0768 -0.0449 -0.9960
vn -0.0279 0.5000 0.8656
vn -0.6904 0.3711 0.6209
vn -0.7294 -0.3317 -0.5983
vn 0.0279 -0.5000 -0.8656
vn 0.2575 -0.2280 -0.9390
vn -0.0207 0.7663 0.6422
vn -0.6850 0.5687 0.4554
vn -0.7343 -0.5080 -0.4502
vn 0.0207 -0.7660 -0.6425
vn 0.4489 -0.4251 -0.7860
vn -0.6298 0.6167 0.4722
vn -0.6779 0.6975 0.2322
vn -0.7406 -0.6233 -0.2509
vn 0.0110 -0.9397 -0.3418
vn 0.6296 -0.6165 -0.4728
vn -0.7053 0.7085 -0.0227
vn -0.6697 0.7423 -0.0216
vn -0.7480 -0.6633 -0.0241
vn -0.0000 -1.0000 0.0000
vn 0.7053 -0.7085 0.0227
vn -0.6615 0.6976 -0.2754
vn -0.7553 -0.6233 0.2026
vn 0.5979 -0.6165 0.5123
vn -0.5981 0.6167 -0.5118
vn 0.0206 0.7663 -0.6422
vn -0.6544 0.5686 -0.4984
vn -0.7616 -0.5082 0.4021
vn -0.0207 -0.7660 0.6425
vn -0.6489 0.3712 -0.6641
vn -0.7665 -0.3316 0.5500
vn -0.6461 0.1289 -0.7523
vn -0.7690 -0.1152 0.6288
vn -0.6461 -0.1289 -0.7523
vn -0.7690 0.1152 0.6288
vn -0.6489 -0.3712 -0.6641
vn -0.7665 0.3316 0.5500
vn -0.6544 -0.5686 -0.4984
vn -0.7617 0.5082 0.4021
vn -0.0207 0.7660 0.6425
vn -0.6615 -0.6976 -0.2754
vn -0.7553 0.6233 0.2026
vn -0.0110 0.9397 0.3418
vn 0.2813 -0.3116 0.9076
vn 0.0997 -0.1319 0.9862
vn -0.0768 0.0449 0.9960
vn -0.2575 0.2280 0.9390
vn -0.4491 0.4252 0.7859
vn 0.4719 -0.0020 0.8817
vn 0.3529 0.6686 0.6545
vn 0.1080 0.6695 0.7349
vn 0.1418 -0.0007 0.9899
vn -0.3100 0.7497 -0.5847
vn -0.0912 0.7488 -0.6565
vn -0.4719 0.0020 -0.8817
vn -0.1418 0.0007 -0.9899
vn -0.1497 0.6705 0.7266
vn -0.2053 0.0007 0.9787
vn 0.1391 0.7479 -0.6490
vn 0.2053 -0.0007 -0.9787
vn -0.3890 0.6715 0.6307
vn -0.5276 0.0020 0.8495
vn 0.3529 0.7471 -0.5634
vn 0.5276 -0.0020 -0.8495
vn -0.5811 0.6723 0.4587
vn -0.7865 0.0030 0.6175
vn 0.5245 0.7464 -0.4097
vn 0.7863 -0.0030 -0.6178
vn -0.7027 0.6728 0.2314
vn 0.6333 0.7458 -0.2066
vn 0.9502 -0.0037 -0.3116
vn -0.7393 0.6730 -0.0238
vn 0.6658 0.7458 0.0215
vn 0.9995 -0.0039 0.0322
vn 0.6186 0.7459 0.2469
vn -0.6864 0.6728 -0.2762
vn 0.9282 -0.0037 0.3721
# 240 vertex normals

vt 0.1667 0.0000 0.0000
vt 0.3333 0.0000 0.0000
vt 0.3333 0.0556 0.0000
vt 0.1667 0.0556 0.0000
vt 0.5000 0.0000 0.0000
vt 0.5000 0.0556 0.0000
vt 0.6667 0.0000 0.0000
vt 0.6667 0.0556 0.0000
vt 0.7112 0.0000 0.0000
vt 0.7284 0.0556 0.0000
vt 0.3333 0.1111 0.0000
vt 0.1667 0.1111 0.0000
vt 0.5000 0.1111 0.0000
vt 0.6667 0.1111 0.0000
vt 0.7436 0.1111 0.0000
vt 0.3333 0.1667 0.0000
vt 0.1667 0.1667 0.0000
vt 0.5000 0.1667 0.0000
vt 0.6667 0.1667 0.0000
vt 0.7483 0.1343 0.0000
vt 0.7407 0.1667 0.0000
vt 0.3333 0.2222 0.0000
vt 0.1667 0.2222 0.0000
vt 0.5000 0.2222 0.0000
vt 0.6667 0.2222 0.0000
vt 0.7249 0.2222 0.0000
vt 0.3333 0.2778 0.0000
vt 0.1667 0.2778 0.0000
vt 0.5000 0.2778 0.0000
vt 0.6667 0.2778 0.0000
vt 0.7081 0.2778 0.0000
vt 0.3333 0.3333 0.0000
vt 0.1667 0.3333 0.0000
vt 0.5000 0.3333 0.0000
vt 0.6667 0.3333 0.0000
vt 0.6922 0.3333 0.0000
vt 0.3333 0.3889 0.0000
vt 0.1667 0.3889 0.0000
vt 0.5000 0.3889 0.0000
vt 0.6667 0.3889 0.0000
vt 0.6793 0.3889 0.0000
vt 0.3333 0.4444 0.0000
vt 0.1667 0.4446 0.0000
vt 0.5000 0.4444 0.0000
vt 0.6667 0.4444 0.0000
vt 0.6709 0.4444 0.0000
vt 0.3333 0.5000 0.0000
vt 0.1698 0.5000 0.0000
vt 0.5000 0.5000 0.0000
vt 0.6667 0.5000 0.0000
vt 0.6680 0.5000 0.0000
vt 0.5000 0.5556 0.0000
vt 0.3333 0.5556 0.0000
vt 0.6667 0.5556 0.0000
vt 0.6709 0.5556 0.0000
vt 0.1667 0.5554 0.0000
vt 0.3333 0.6111 0.0000
vt 0.1667 0.6111 0.0000
vt 0.5000 0.6111 0.0000
vt 0.6667 0.6111 0.0000
vt 0.6792 0.6101 0.0000
vt 0.6789 0.6111 0.0000
vt 0.3333 0.6667 0.0000
vt 0.1697 0.6667 0.0000
vt 0.1667 0.6530 0.0000
vt 0.5000 0.6667 0.0000
vt 0.6667 0.6667 0.0000
vt 0.6677 0.6667 0.0000
vt 0.5000 0.7222 0.0000
vt 0.3333 0.7222 0.0000
vt 0.6667 0.6759 0.0000
vt 0.6617 0.7222 0.0000
vt 0.5000 0.7778 0.0000
vt 0.3333 0.7778 0.0000
vt 0.6617 0.7778 0.0000
vt 0.5000 0.8333 0.0000
vt 0.3333 0.8333 0.0000
vt 0.6667 0.8241 0.0000
vt 0.6667 0.8333 0.0000
vt 0.5000 0.8889 0.0000
vt 0.3333 0.8889 0.0000
vt 0.6667 0.8889 0.0000
vt 0.6677 0.8333 0.0000
vt 0.6789 0.8889 0.0000
vt 0.1667 0.8889 0.0000
vt 0.3333 0.9444 0.0000
vt 0.1667 0.9444 0.0000
vt 0.5000 0.9444 0.0000
vt 0.6667 0.9444 0.0000
vt 0.6940 0.9444 0.0000
vt 0.3333 1.0000 0.0000
vt 0.1667 1.0000 0.0000
vt 0.5000 1.0000 0.0000
vt 0.6667 1.0000 0.0000
vt 0.7112 1.0000 0.0000
vt 0.0904 0.1667 0.0000
vt 0.1076 0.2222 0.0000
vt 0.1261 0.2778 0.0000
vt 0.1433 0.3333 0.0000
vt 0.1574 0.3889 0.0000
vt 0.1574 0.6111 0.0000
vt 0.3333 0.6097 0.0000
vt 0.5000 0.6084 0.0000
vt 0.6667 0.6100 0.0000
vt 0.1762 0.7222 0.0000
vt 0.1762 0.7778 0.0000
vt 0.1697 0.8333 0.0000
vt 0.1667 0.8470 0.0000
vt 0.1221 0.0000 0.0000
vt 0.1033 0.0556 0.0000
vt 0.0868 0.1111 0.0000
vt 0.0819 0.1333 0.0000
vt 0.1574 0.8889 0.0000
vt 0.1409 0.9444 0.0000
vt 0.1221 1.0000 0.0000
vt 0.1667 0.1340 0.0000
vt 0.3333 0.1354 0.0000
vt 0.5000 0.1366 0.0000
vt 0.6667 0.1351 0.0000
# 119 texture coords

o Tube001
g Tube001
f -251/-119/-240 -250/-118/-239 -249/-117/-238 -248/-116/-237 
f -250/-118/-239 -247/-115/-236 -246/-114/-235 -249/-117/-238 
f -247/-115/-236 -245/-113/-234 -244/-112/-233 -246/-114/-235 
f -245/-113/-234 -243/-111/-232 -242/-110/-231 -244/-112/-233 
f -248/-116/-237 -249/-117/-238 -241/-109/-230 -240/-108/-229 
f -249/-117/-238 -246/-114/-235 -239/-107/-228 -241/-109/-230 
f -246/-114/-235 -244/-112/-233 -238/-106/-227 -239/-107/-228 
f -244/-112/-233 -242/-110/-231 -237/-105/-226 -238/-106/-227 
f -240/-108/-229 -241/-109/-230 -236/-104/-225 -235/-103/-224 
f -241/-109/-230 -239/-107/-228 -234/-102/-223 -236/-104/-225 
f -239/-107/-228 -238/-106/-227 -233/-101/-222 -234/-102/-223 
f -238/-106/-227 -237/-105/-226 -232/-100/-221 -231/-99/-220 -233/-101/-222 
f -235/-103/-224 -236/-104/-225 -230/-98/-219 -229/-97/-218 
f -236/-104/-225 -234/-102/-223 -228/-96/-217 -230/-98/-219 
f -234/-102/-223 -233/-101/-222 -227/-95/-216 -228/-96/-217 
f -233/-101/-222 -231/-99/-220 -226/-94/-215 -227/-95/-216 
f -229/-97/-218 -230/-98/-219 -225/-93/-214 -224/-92/-213 
f -230/-98/-219 -228/-96/-217 -223/-91/-212 -225/-93/-214 
f -228/-96/-217 -227/-95/-216 -222/-90/-211 -223/-91/-212 
f -227/-95/-216 -226/-94/-215 -221/-89/-210 -222/-90/-211 
f -224/-92/-213 -225/-93/-214 -220/-88/-209 -219/-87/-208 
f -225/-93/-214 -223/-91/-212 -218/-86/-207 -220/-88/-209 
f -223/-91/-212 -222/-90/-211 -217/-85/-206 -218/-86/-207 
f -222/-90/-211 -221/-89/-210 -216/-84/-205 -217/-85/-206 
f -219/-87/-208 -220/-88/-209 -215/-83/-204 -214/-82/-203 
f -220/-88/-209 -218/-86/-207 -213/-81/-202 -215/-83/-204 
f -218/-86/-207 -217/-85/-206 -212/-80/-201 -213/-81/-202 
f -217/-85/-206 -216/-84/-205 -211/-79/-200 -212/-80/-201 
f -214/-82/-203 -215/-83/-204 -210/-78/-199 -209/-77/-198 
f -215/-83/-204 -213/-81/-202 -208/-76/-197 -210/-78/-199 
f -213/-81/-202 -212/-80/-201 -207/-75/-196 -208/-76/-197 
f -212/-80/-201 -211/-79/-200 -206/-74/-195 -207/-75/-196 
f -210/-78/-199 -205/-73/-194 -204/-72/-193 -209/-77/-198 
f -210/-78/-199 -208/-76/-197 -203/-71/-192 -205/-73/-194 
f -208/-76/-197 -207/-75/-196 -202/-70/-240 -203/-71/-192 
f -207/-75/-196 -206/-74/-195 -201/-69/-191 -202/-70/-240 
f -205/-73/-194 -203/-71/-192 -200/-68/-190 -199/-67/-189 
f -203/-71/-192 -202/-70/-240 -198/-66/-237 -200/-68/-190 
f -202/-70/-240 -201/-69/-191 -197/-65/-188 -198/-66/-237 
f -196/-64/-187 -199/-67/-189 -195/-63/-186 -194/-62/-185 
f -199/-67/-189 -200/-68/-190 -193/-61/-184 -195/-63/-186 
f -200/-68/-190 -198/-66/-237 -192/-60/-229 -193/-61/-184 
f -198/-66/-237 -197/-65/-188 -191/-59/-183 -190/-58/-182 -192/-60/-229 
f -194/-62/-185 -195/-63/-186 -189/-57/-181 -188/-56/-180 -187/-55/-179 
f -195/-63/-186 -193/-61/-184 -186/-54/-178 -189/-57/-181 
f -193/-61/-184 -192/-60/-229 -185/-53/-224 -186/-54/-178 
f -192/-60/-229 -190/-58/-182 -184/-52/-177 -185/-53/-224 
f -189/-57/-181 -186/-54/-178 -183/-51/-176 -182/-50/-175 
f -186/-54/-178 -185/-53/-224 -181/-49/-174 -180/-48/-173 -183/-51/-176 
f -185/-53/-224 -184/-52/-177 -181/-49/-174 
f -182/-50/-175 -183/-51/-176 -179/-47/-172 -178/-46/-171 
f -183/-51/-176 -180/-48/-173 -177/-45/-170 -179/-47/-172 
f -178/-46/-171 -179/-47/-172 -176/-44/-169 -175/-43/-168 
f -179/-47/-172 -177/-45/-170 -174/-42/-167 -173/-41/-208 -176/-44/-169 
f -175/-43/-168 -176/-44/-169 -172/-40/-166 -171/-39/-165 
f -176/-44/-169 -173/-41/-208 -170/-38/-164 -172/-40/-166 
f -173/-41/-208 -169/-37/-163 -168/-36/-162 -170/-38/-164 
f -167/-35/-161 -171/-39/-165 -166/-34/-160 -165/-33/-159 
f -171/-39/-165 -172/-40/-166 -164/-32/-158 -166/-34/-160 
f -172/-40/-166 -170/-38/-164 -163/-31/-157 -164/-32/-158 
f -170/-38/-164 -168/-36/-162 -162/-30/-156 -163/-31/-157 
f -165/-33/-159 -166/-34/-160 -250/-29/-239 -251/-28/-240 
f -166/-34/-160 -164/-32/-158 -247/-27/-236 -250/-29/-239 
f -164/-32/-158 -163/-31/-157 -245/-26/-234 -247/-27/-236 
f -163/-31/-157 -162/-30/-156 -243/-25/-232 -245/-26/-234 
f -161/-24/-155 -235/-103/-224 -229/-97/-218 -160/-23/-154 
f -160/-23/-154 -229/-97/-218 -224/-92/-213 -159/-22/-153 
f -159/-22/-153 -224/-92/-213 -219/-87/-208 -158/-21/-152 
f -158/-21/-152 -219/-87/-208 -214/-82/-203 -157/-20/-151 
f -157/-20/-151 -214/-82/-203 -209/-77/-198 
f -204/-72/-193 -205/-73/-194 -199/-67/-189 -196/-64/-187 
f -196/-64/-187 -194/-62/-185 -156/-19/-150 
f -156/-19/-150 -194/-62/-185 -187/-55/-179 
f -155/-103/-149 -154/-97/-148 -153/-98/-147 -152/-104/-146 
f -152/-104/-146 -153/-98/-147 -151/-96/-145 -150/-102/-144 
f -150/-102/-144 -151/-96/-145 -149/-95/-143 -148/-101/-142 
f -148/-101/-142 -149/-95/-143 -226/-94/-215 -231/-99/-220 
f -154/-97/-148 -147/-92/-141 -146/-93/-140 -153/-98/-147 
f -153/-98/-147 -146/-93/-140 -145/-91/-139 -151/-96/-145 
f -151/-96/-145 -145/-91/-139 -144/-90/-138 -149/-95/-143 
f -149/-95/-143 -144/-90/-138 -221/-89/-210 -226/-94/-215 
f -147/-92/-141 -143/-87/-137 -142/-88/-136 -146/-93/-140 
f -146/-93/-140 -142/-88/-136 -141/-86/-135 -145/-91/-139 
f -145/-91/-139 -141/-86/-135 -140/-85/-134 -144/-90/-138 
f -144/-90/-138 -140/-85/-134 -216/-84/-205 -221/-89/-210 
f -143/-87/-137 -139/-82/-133 -138/-83/-132 -142/-88/-136 
f -142/-88/-136 -138/-83/-132 -137/-81/-131 -141/-86/-135 
f -141/-86/-135 -137/-81/-131 -136/-80/-130 -140/-85/-134 
f -140/-85/-134 -136/-80/-130 -211/-79/-200 -216/-84/-205 
f -139/-82/-133 -209/-77/-198 -135/-78/-129 -138/-83/-132 
f -138/-83/-132 -135/-78/-129 -134/-76/-128 -137/-81/-131 
f -137/-81/-131 -134/-76/-128 -133/-75/-127 -136/-80/-130 
f -136/-80/-130 -133/-75/-127 -206/-74/-195 -211/-79/-200 
f -135/-78/-129 -209/-77/-198 -204/-72/-193 -132/-73/-126 
f -135/-78/-129 -132/-73/-126 -131/-71/-125 -134/-76/-128 
f -134/-76/-128 -131/-71/-125 -130/-70/-124 -133/-75/-127 
f -133/-75/-127 -130/-70/-124 -201/-69/-191 -206/-74/-195 
f -132/-73/-126 -129/-67/-123 -128/-68/-122 -131/-71/-125 
f -131/-71/-125 -128/-68/-122 -127/-66/-121 -130/-70/-124 
f -130/-70/-124 -127/-66/-121 -197/-65/-188 -201/-69/-191 
f -196/-64/-187 -126/-62/-120 -125/-18/-119 -129/-67/-123 
f -129/-67/-123 -125/-18/-119 -124/-17/-118 -128/-68/-122 
f -128/-68/-122 -124/-17/-118 -123/-16/-117 -127/-66/-121 
f -127/-66/-121 -123/-16/-117 -191/-59/-183 -197/-65/-188 
f -161/-24/-155 -160/-23/-154 -154/-97/-148 -155/-103/-149 
f -160/-23/-154 -159/-22/-153 -147/-92/-141 -154/-97/-148 
f -159/-22/-153 -158/-21/-152 -143/-87/-137 -147/-92/-141 
f -158/-21/-152 -157/-20/-151 -139/-82/-133 -143/-87/-137 
f -157/-20/-151 -209/-77/-198 -139/-82/-133 
f -204/-72/-193 -196/-64/-187 -129/-67/-123 -132/-73/-126 
f -196/-64/-187 -156/-19/-150 -126/-62/-120 
f -188/-56/-180 -189/-57/-181 -182/-50/-175 -122/-15/-116 
f -122/-15/-116 -182/-50/-175 -178/-46/-171 -121/-14/-115 
f -121/-14/-115 -178/-46/-171 -175/-43/-168 -120/-13/-114 
f -169/-37/-163 -173/-41/-208 -174/-42/-167 
f -120/-13/-114 -175/-43/-168 -171/-39/-165 -167/-35/-161 -119/-12/-113 
f -118/-11/-112 -251/-119/-240 -248/-116/-237 -117/-10/-111 
f -117/-10/-111 -248/-116/-237 -240/-108/-229 -116/-9/-110 
f -116/-9/-110 -240/-108/-229 -235/-103/-224 -161/-24/-155 -115/-8/-109 
f -119/-12/-113 -167/-35/-161 -114/-7/-108 
f -114/-7/-108 -167/-35/-161 -165/-33/-159 -113/-6/-107 
f -113/-6/-107 -165/-33/-159 -251/-28/-240 -118/-5/-112 
f -112/-4/-106 -155/-103/-149 -152/-104/-146 -111/-3/-105 
f -111/-3/-105 -152/-104/-146 -150/-102/-144 -110/-2/-104 
f -110/-2/-104 -150/-102/-144 -148/-101/-142 -109/-1/-103 
f -109/-1/-103 -148/-101/-142 -231/-99/-220 -232/-100/-221 
f -115/-8/-109 -161/-24/-155 -155/-103/-149 -112/-4/-106 
f -108/-119/-102 -107/-116/-101 -106/-117/-100 -105/-118/-99 
f -105/-118/-99 -106/-117/-100 -104/-114/-98 -103/-115/-97 
f -103/-115/-97 -104/-114/-98 -102/-112/-96 -101/-113/-234 
f -101/-113/-234 -102/-112/-96 -242/-110/-231 -243/-111/-232 
f -107/-116/-101 -100/-108/-95 -99/-109/-94 -106/-117/-100 
f -106/-117/-100 -99/-109/-94 -98/-107/-93 -104/-114/-98 
f -104/-114/-98 -98/-107/-93 -97/-106/-92 -102/-112/-96 
f -102/-112/-96 -97/-106/-92 -237/-105/-226 -242/-110/-231 
f -100/-108/-95 -96/-103/-91 -95/-104/-90 -99/-109/-94 
f -99/-109/-94 -95/-104/-90 -94/-102/-89 -98/-107/-93 
f -98/-107/-93 -94/-102/-89 -93/-101/-88 -97/-106/-92 
f -97/-106/-92 -93/-101/-88 -92/-99/-87 -232/-100/-221 -237/-105/-226 
f -96/-103/-91 -91/-97/-86 -90/-98/-85 -95/-104/-90 
f -95/-104/-90 -90/-98/-85 -89/-96/-84 -94/-102/-89 
f -94/-102/-89 -89/-96/-84 -88/-95/-83 -93/-101/-88 
f -93/-101/-88 -88/-95/-83 -87/-94/-82 -92/-99/-87 
f -91/-97/-86 -86/-92/-81 -85/-93/-80 -90/-98/-85 
f -90/-98/-85 -85/-93/-80 -84/-91/-79 -89/-96/-84 
f -89/-96/-84 -84/-91/-79 -83/-90/-78 -88/-95/-83 
f -88/-95/-83 -83/-90/-78 -82/-89/-77 -87/-94/-82 
f -86/-92/-81 -81/-87/-76 -80/-88/-75 -85/-93/-80 
f -85/-93/-80 -80/-88/-75 -79/-86/-74 -84/-91/-79 
f -84/-91/-79 -79/-86/-74 -78/-85/-73 -83/-90/-78 
f -83/-90/-78 -78/-85/-73 -77/-84/-72 -82/-89/-77 
f -81/-87/-76 -76/-82/-71 -75/-83/-70 -80/-88/-75 
f -80/-88/-75 -75/-83/-70 -74/-81/-69 -79/-86/-74 
f -79/-86/-74 -74/-81/-69 -73/-80/-68 -78/-85/-73 
f -78/-85/-73 -73/-80/-68 -72/-79/-67 -77/-84/-72 
f -76/-82/-71 -71/-77/-66 -70/-78/-65 -75/-83/-70 
f -75/-83/-70 -70/-78/-65 -69/-76/-64 -74/-81/-69 
f -74/-81/-69 -69/-76/-64 -68/-75/-63 -73/-80/-68 
f -73/-80/-68 -68/-75/-63 -67/-74/-62 -72/-79/-67 
f -70/-78/-65 -71/-77/-66 -66/-72/-61 -65/-73/-60 
f -70/-78/-65 -65/-73/-60 -64/-71/-59 -69/-76/-64 
f -69/-76/-64 -64/-71/-59 -63/-70/-58 -68/-75/-63 
f -68/-75/-63 -63/-70/-58 -62/-69/-57 -67/-74/-62 
f -65/-73/-60 -61/-67/-56 -60/-68/-55 -64/-71/-59 
f -64/-71/-59 -60/-68/-55 -59/-66/-101 -63/-70/-58 
f -63/-70/-58 -59/-66/-101 -58/-65/-54 -62/-69/-57 
f -57/-64/-53 -56/-62/-52 -55/-63/-51 -61/-67/-56 
f -61/-67/-56 -55/-63/-51 -54/-61/-50 -60/-68/-55 
f -60/-68/-55 -54/-61/-50 -53/-60/-49 -59/-66/-101 
f -59/-66/-101 -53/-60/-49 -190/-58/-182 -191/-59/-183 -58/-65/-54 
f -56/-62/-52 -187/-55/-179 -188/-56/-180 -52/-57/-48 -55/-63/-51 
f -55/-63/-51 -52/-57/-48 -51/-54/-47 -54/-61/-50 
f -54/-61/-50 -51/-54/-47 -50/-53/-91 -53/-60/-49 
f -53/-60/-49 -50/-53/-91 -184/-52/-177 -190/-58/-182 
f -52/-57/-48 -49/-50/-46 -48/-51/-45 -51/-54/-47 
f -51/-54/-47 -48/-51/-45 -180/-48/-173 -181/-49/-174 -50/-53/-91 
f -50/-53/-91 -181/-49/-174 -184/-52/-177 
f -49/-50/-46 -47/-46/-44 -46/-47/-43 -48/-51/-45 
f -48/-51/-45 -46/-47/-43 -177/-45/-170 -180/-48/-173 
f -47/-46/-44 -45/-43/-42 -44/-44/-41 -46/-47/-43 
f -46/-47/-43 -44/-44/-41 -43/-41/-76 -174/-42/-167 -177/-45/-170 
f -45/-43/-42 -42/-39/-40 -41/-40/-39 -44/-44/-41 
f -44/-44/-41 -41/-40/-39 -40/-38/-38 -43/-41/-76 
f -43/-41/-76 -40/-38/-38 -168/-36/-162 -169/-37/-163 
f -39/-35/-68 -38/-33/-63 -37/-34/-37 -42/-39/-40 
f -42/-39/-40 -37/-34/-37 -36/-32/-36 -41/-40/-39 
f -41/-40/-39 -36/-32/-36 -35/-31/-35 -40/-38/-38 
f -40/-38/-38 -35/-31/-35 -162/-30/-156 -168/-36/-162 
f -38/-33/-63 -108/-28/-102 -105/-29/-99 -37/-34/-37 
f -37/-34/-37 -105/-29/-99 -103/-27/-97 -36/-32/-36 
f -36/-32/-36 -103/-27/-97 -101/-26/-234 -35/-31/-35 
f -35/-31/-35 -101/-26/-234 -243/-25/-232 -162/-30/-156 
f -34/-24/-34 -33/-23/-33 -91/-97/-86 -96/-103/-91 
f -33/-23/-33 -32/-22/-32 -86/-92/-81 -91/-97/-86 
f -32/-22/-32 -31/-21/-31 -81/-87/-76 -86/-92/-81 
f -31/-21/-31 -30/-20/-30 -76/-82/-71 -81/-87/-76 
f -30/-20/-30 -71/-77/-66 -76/-82/-71 
f -66/-72/-61 -57/-64/-53 -61/-67/-56 -65/-73/-60 
f -57/-64/-53 -156/-19/-150 -56/-62/-52 
f -156/-19/-150 -187/-55/-179 -56/-62/-52 
f -29/-103/-29 -28/-104/-28 -27/-98/-27 -26/-97/-26 
f -28/-104/-28 -25/-102/-25 -24/-96/-24 -27/-98/-27 
f -25/-102/-25 -23/-101/-23 -22/-95/-22 -24/-96/-24 
f -23/-101/-23 -92/-99/-87 -87/-94/-82 -22/-95/-22 
f -26/-97/-26 -27/-98/-27 -21/-93/-21 -20/-92/-20 
f -27/-98/-27 -24/-96/-24 -19/-91/-19 -21/-93/-21 
f -24/-96/-24 -22/-95/-22 -18/-90/-18 -19/-91/-19 
f -22/-95/-22 -87/-94/-82 -82/-89/-77 -18/-90/-18 
f -20/-92/-20 -21/-93/-21 -17/-88/-17 -16/-87/-16 
f -21/-93/-21 -19/-91/-19 -15/-86/-15 -17/-88/-17 
f -19/-91/-19 -18/-90/-18 -14/-85/-14 -15/-86/-15 
f -18/-90/-18 -82/-89/-77 -77/-84/-72 -14/-85/-14 
f -16/-87/-16 -17/-88/-17 -13/-83/-13 -12/-82/-12 
f -17/-88/-17 -15/-86/-15 -11/-81/-11 -13/-83/-13 
f -15/-86/-15 -14/-85/-14 -10/-80/-10 -11/-81/-11 
f -14/-85/-14 -77/-84/-72 -72/-79/-67 -10/-80/-10 
f -12/-82/-12 -13/-83/-13 -9/-78/-9 -71/-77/-66 
f -13/-83/-13 -11/-81/-11 -8/-76/-8 -9/-78/-9 
f -11/-81/-11 -10/-80/-10 -7/-75/-7 -8/-76/-8 
f -10/-80/-10 -72/-79/-67 -67/-74/-62 -7/-75/-7 
f -9/-78/-9 -6/-73/-6 -66/-72/-61 -71/-77/-66 
f -9/-78/-9 -8/-76/-8 -5/-71/-5 -6/-73/-6 
f -8/-76/-8 -7/-75/-7 -4/-70/-4 -5/-71/-5 
f -7/-75/-7 -67/-74/-62 -62/-69/-57 -4/-70/-4 
f -6/-73/-6 -5/-71/-5 -3/-68/-3 -2/-67/-2 
f -5/-71/-5 -4/-70/-4 -1/-66/-1 -3/-68/-3 
f -4/-70/-4 -62/-69/-57 -58/-65/-54 -1/-66/-1 
f -57/-64/-53 -2/-67/-2 -125/-18/-119 -126/-62/-120 
f -2/-67/-2 -3/-68/-3 -124/-17/-118 -125/-18/-119 
f -3/-68/-3 -1/-66/-1 -123/-16/-117 -124/-17/-118 
f -1/-66/-1 -58/-65/-54 -191/-59/-183 -123/-16/-117 
f -34/-24/-34 -29/-103/-29 -26/-97/-26 -33/-23/-33 
f -33/-23/-33 -26/-97/-26 -20/-92/-20 -32/-22/-32 
f -32/-22/-32 -20/-92/-20 -16/-87/-16 -31/-21/-31 
f -31/-21/-31 -16/-87/-16 -12/-82/-12 -30/-20/-30 
f -30/-20/-30 -12/-82/-12 -71/-77/-66 
f -66/-72/-61 -6/-73/-6 -2/-67/-2 -57/-64/-53 
f -57/-64/-53 -126/-62/-120 -156/-19/-150 
f -188/-56/-180 -122/-15/-116 -49/-50/-46 -52/-57/-48 
f -122/-15/-116 -121/-14/-115 -47/-46/-44 -49/-50/-46 
f -121/-14/-115 -120/-13/-114 -45/-43/-42 -47/-46/-44 
f -169/-37/-163 -174/-42/-167 -43/-41/-76 
f -120/-13/-114 -119/-12/-113 -39/-35/-68 -42/-39/-40 -45/-43/-42 
f -118/-11/-112 -117/-10/-111 -107/-116/-101 -108/-119/-102 
f -117/-10/-111 -116/-9/-110 -100/-108/-95 -107/-116/-101 
f -116/-9/-110 -115/-8/-109 -34/-24/-34 -96/-103/-91 -100/-108/-95 
f -119/-12/-113 -114/-7/-108 -39/-35/-68 
f -114/-7/-108 -113/-6/-107 -38/-33/-63 -39/-35/-68 
f -113/-6/-107 -118/-5/-112 -108/-28/-102 -38/-33/-63 
f -112/-4/-106 -111/-3/-105 -28/-104/-28 -29/-103/-29 
f -111/-3/-105 -110/-2/-104 -25/-102/-25 -28/-104/-28 
f -110/-2/-104 -109/-1/-103 -23/-101/-23 -25/-102/-25 
f -109/-1/-103 -232/-100/-221 -92/-99/-87 -23/-101/-23 
f -115/-8/-109 -112/-4/-106 -29/-103/-29 -34/-24/-34 
# 238 polygons - 16 triangles

